{
  "accessors": [
    {
      "bufferView": 0,
      "componentType": 5125,
      "count": 2466,
      "type": "SCALAR"
    },
    {
      "bufferView": 1,
      "componentType": 5126,
      "count": 711,
      "max": [
        -173.559982299805,
        170.025924682617,
        291.280517578125
      ],
      "min": [
        -189.246704101563,
        164.455795288086,
        284.071319580078
      ],
      "type": "VEC3"
    },
    {
      "bufferView": 2,
      "componentType": 5126,
      "count": 711,
      "type": "VEC3"
    },
    {
      "bufferView": 3,
      "componentType": 5126,
      "count": 711,
      "type": "VEC2"
    },
    {
      "bufferView": 4,
      "componentType": 5125,
      "count": 288,
      "type": "SCALAR"
    },
    {
      "bufferView": 5,
      "componentType": 5126,
      "count": 156,
      "max": [
        -160.420425415039,
        281.800903320313,
        300.335754394531
      ],
      "min": [
        -261.111724853516,
        70.7248992919922,
        283.878234863281
      ],
      "type": "VEC3"
    },
    {
      "bufferView": 6,
      "componentType": 5126,
      "count": 156,
      "type": "VEC3"
    },
    {
      "bufferView": 7,
      "componentType": 5126,
      "count": 156,
      "type": "VEC2"
    },
    {
      "bufferView": 8,
      "componentType": 5125,
      "count": 2466,
      "type": "SCALAR"
    },
    {
      "bufferView": 9,
      "componentType": 5126,
      "count": 711,
      "max": [
        -173.559982299805,
        170.025924682617,
        291.280548095703
      ],
      "min": [
        -189.246704101563,
        164.455795288086,
        284.071350097656
      ],
      "type": "VEC3"
    },
    {
      "bufferView": 10,
      "componentType": 5126,
      "count": 711,
      "type": "VEC3"
    },
    {
      "bufferView": 11,
      "componentType": 5126,
      "count": 711,
      "type": "VEC2"
    }
  ],
  "asset": {
    "generator": "Substance Painter 6.2.2",
    "version": "2.0"
  },
  "bufferViews": [
    {
      "buffer": 0,
      "byteLength": 9864,
      "target": 34963
    },
    {
      "buffer": 0,
      "byteLength": 8532,
      "byteOffset": 9864,
      "target": 34962
    },
    {
      "buffer": 0,
      "byteLength": 8532,
      "byteOffset": 18396,
      "target": 34962
    },
    {
      "buffer": 0,
      "byteLength": 5688,
      "byteOffset": 26928,
      "target": 34962
    },
    {
      "buffer": 0,
      "byteLength": 1152,
      "byteOffset": 32616,
      "target": 34963
    },
    {
      "buffer": 0,
      "byteLength": 1872,
      "byteOffset": 33768,
      "target": 34962
    },
    {
      "buffer": 0,
      "byteLength": 1872,
      "byteOffset": 35640,
      "target": 34962
    },
    {
      "buffer": 0,
      "byteLength": 1248,
      "byteOffset": 37512,
      "target": 34962
    },
    {
      "buffer": 0,
      "byteLength": 9864,
      "byteOffset": 38760,
      "target": 34963
    },
    {
      "buffer": 0,
      "byteLength": 8532,
      "byteOffset": 48624,
      "target": 34962
    },
    {
      "buffer": 0,
      "byteLength": 8532,
      "byteOffset": 57156,
      "target": 34962
    },
    {
      "buffer": 0,
      "byteLength": 5688,
      "byteOffset": 65688,
      "target": 34962
    }
  ],
  "buffers": [
    {
      "byteLength": 71376,
      "uri": "objs_.bin"
    }
  ],
  "images": [
    {
      "uri": "standardSurface1_baseColor.png"
    },
    {
      "uri": "standardSurface1_occlusionRoughnessMetallic.png"
    },
    {
      "uri": "standardSurface1_normal.png"
    }
  ],
  "materials": [
    {
      "alphaMode": "BLEND",
      "name": "standardSurface1",
      "normalTexture": {
        "index": 2
      },
      "occlusionTexture": {
        "index": 1
      },
      "pbrMetallicRoughness": {
        "baseColorTexture": {
          "index": 0
        },
        "metallicRoughnessTexture": {
          "index": 1
        }
      }
    }
  ],
  "meshes": [
    {
      "name": "pPlane2",
      "primitives": [
        {
          "attributes": {
            "NORMAL": 2,
            "POSITION": 1,
            "TEXCOORD_0": 3
          },
          "indices": 0,
          "material": 0,
          "mode": 4
        }
      ]
    },
    {
      "name": "door1:polySurface29",
      "primitives": [
        {
          "attributes": {
            "NORMAL": 6,
            "POSITION": 5,
            "TEXCOORD_0": 7
          },
          "indices": 4,
          "material": 0,
          "mode": 4
        }
      ]
    },
    {
      "name": "pPlane3",
      "primitives": [
        {
          "attributes": {
            "NORMAL": 10,
            "POSITION": 9,
            "TEXCOORD_0": 11
          },
          "indices": 8,
          "material": 0,
          "mode": 4
        }
      ]
    }
  ],
  "nodes": [
    {
      "children": [
        1
      ],
      "name": "RootNode"
    },
    {
      "children": [
        2
      ],
      "name": "arch",
      "scale": [
        0.00999999977648258,
        0.00999999977648258,
        0.00999999977648258
      ]
    },
    {
      "children": [
        3,
        5,
        7
      ],
      "name": "door"
    },
    {
      "children": [
        4
      ],
      "name": "pPlane2"
    },
    {
      "mesh": 0,
      "name": "pPlane2"
    },
    {
      "children": [
        6
      ],
      "name": "door1:polySurface29",
      "translation": [
        0.0,
        0.0,
        -0.0528416894376278
      ]
    },
    {
      "mesh": 1,
      "name": "door1:polySurface29"
    },
    {
      "children": [
        8
      ],
      "name": "pPlane3",
      "rotation": [
        -0.0,
        -0.0,
        1.0,
        0.0
      ],
      "scale": [
        -1.0,
        -1.0,
        -1.0
      ],
      "translation": [
        0.0,
        0.0,
        586.611022949219
      ]
    },
    {
      "mesh": 2,
      "name": "pPlane3"
    }
  ],
  "samplers": [
    {
      "magFilter": 9729,
      "minFilter": 9985,
      "wrapS": 10497,
      "wrapT": 10497
    }
  ],
  "scene": 0,
  "scenes": [
    {
      "name": "Scene",
      "nodes": [
        0
      ]
    }
  ],
  "textures": [
    {
      "sampler": 0,
      "source": 0
    },
    {
      "sampler": 0,
      "source": 1
    },
    {
      "sampler": 0,
      "source": 2
    }
  ]
}