{
  "accessors": [
    {
      "bufferView": 0,
      "componentType": 5125,
      "count": 2352,
      "type": "SCALAR"
    },
    {
      "bufferView": 1,
      "componentType": 5126,
      "count": 817,
      "max": [
        0.555000305175781,
        0.132499948143959,
        0.651366472244263
      ],
      "min": [
        -0.555000305175781,
        -0.132500022649765,
        0.00143611431121826
      ],
      "type": "VEC3"
    },
    {
      "bufferView": 2,
      "componentType": 5126,
      "count": 817,
      "type": "VEC3"
    },
    {
      "bufferView": 3,
      "componentType": 5126,
      "count": 817,
      "type": "VEC2"
    }
  ],
  "asset": {
    "generator": "Substance Painter 6.2.2",
    "version": "2.0"
  },
  "bufferViews": [
    {
      "buffer": 0,
      "byteLength": 9408,
      "target": 34963
    },
    {
      "buffer": 0,
      "byteLength": 9804,
      "byteOffset": 9408,
      "target": 34962
    },
    {
      "buffer": 0,
      "byteLength": 9804,
      "byteOffset": 19212,
      "target": 34962
    },
    {
      "buffer": 0,
      "byteLength": 6536,
      "byteOffset": 29016,
      "target": 34962
    }
  ],
  "buffers": [
    {
      "byteLength": 35552,
      "uri": "objs_.bin"
    }
  ],
  "images": [
    {
      "uri": "standardSurface1_baseColor.png"
    },
    {
      "uri": "standardSurface1_occlusionRoughnessMetallic.png"
    },
    {
      "uri": "standardSurface1_normal.png"
    }
  ],
  "materials": [
    {
      "alphaMode": "OPAQUE",
      "name": "standardSurface1",
      "normalTexture": {
        "index": 2
      },
      "occlusionTexture": {
        "index": 1
      },
      "pbrMetallicRoughness": {
        "baseColorTexture": {
          "index": 0
        },
        "metallicRoughnessTexture": {
          "index": 1
        }
      }
    }
  ],
  "meshes": [
    {
      "name": "TV_TCL_50_INCHES",
      "primitives": [
        {
          "attributes": {
            "NORMAL": 2,
            "POSITION": 1,
            "TEXCOORD_0": 3
          },
          "indices": 0,
          "material": 0,
          "mode": 4
        }
      ]
    }
  ],
  "nodes": [
    {
      "children": [
        1
      ],
      "name": "RootNode"
    },
    {
      "children": [
        2
      ],
      "name": "arch",
      "scale": [
        0.00999999977648258,
        0.00999999977648258,
        0.00999999977648258
      ]
    },
    {
      "children": [
        3
      ],
      "name": "tvs"
    },
    {
      "children": [
        4
      ],
      "name": "TV_TCL_50_INCHES",
      "rotation": [
        -0.707106828689575,
        0.0,
        0.0,
        0.707106709480286
      ],
      "scale": [
        97.7811279296875,
        100.0,
        100.0
      ],
      "translation": [
        -560.286376953125,
        138.447875976563,
        -45.9198570251465
      ]
    },
    {
      "mesh": 0,
      "name": "TV_TCL_50_INCHES"
    }
  ],
  "samplers": [
    {
      "magFilter": 9729,
      "minFilter": 9985,
      "wrapS": 10497,
      "wrapT": 10497
    }
  ],
  "scene": 0,
  "scenes": [
    {
      "name": "Scene",
      "nodes": [
        0
      ]
    }
  ],
  "textures": [
    {
      "sampler": 0,
      "source": 0
    },
    {
      "sampler": 0,
      "source": 1
    },
    {
      "sampler": 0,
      "source": 2
    }
  ]
}