{
  "accessors": [
    {
      "bufferView": 0,
      "componentType": 5125,
      "count": 15894,
      "type": "SCALAR"
    },
    {
      "bufferView": 1,
      "componentType": 5126,
      "count": 3356,
      "max": [
        -375.797271728516,
        366.924377441406,
        133.399291992188
      ],
      "min": [
        -418.962188720703,
        271.769195556641,
        90.2332229614258
      ],
      "type": "VEC3"
    },
    {
      "bufferView": 2,
      "componentType": 5126,
      "count": 3356,
      "type": "VEC3"
    },
    {
      "bufferView": 3,
      "componentType": 5126,
      "count": 3356,
      "type": "VEC2"
    }
  ],
  "asset": {
    "generator": "Substance Painter 6.2.2",
    "version": "2.0"
  },
  "bufferViews": [
    {
      "buffer": 0,
      "byteLength": 63576,
      "target": 34963
    },
    {
      "buffer": 0,
      "byteLength": 40272,
      "byteOffset": 63576,
      "target": 34962
    },
    {
      "buffer": 0,
      "byteLength": 40272,
      "byteOffset": 103848,
      "target": 34962
    },
    {
      "buffer": 0,
      "byteLength": 26848,
      "byteOffset": 144120,
      "target": 34962
    }
  ],
  "buffers": [
    {
      "byteLength": 170968,
      "uri": "PBR - Metallic Roughness.bin"
    }
  ],
  "images": [
    {
      "uri": "standardSurface1_baseColor.png"
    },
    {
      "uri": "standardSurface1_occlusionRoughnessMetallic.png"
    },
    {
      "uri": "standardSurface1_normal.png"
    }
  ],
  "materials": [
    {
      "alphaMode": "BLEND",
      "name": "standardSurface1",
      "normalTexture": {
        "index": 2
      },
      "occlusionTexture": {
        "index": 1
      },
      "pbrMetallicRoughness": {
        "baseColorTexture": {
          "index": 0
        },
        "metallicRoughnessTexture": {
          "index": 1
        }
      }
    }
  ],
  "meshes": [
    {
      "name": "polySurface4",
      "primitives": [
        {
          "attributes": {
            "NORMAL": 2,
            "POSITION": 1,
            "TEXCOORD_0": 3
          },
          "indices": 0,
          "material": 0,
          "mode": 4
        }
      ]
    }
  ],
  "nodes": [
    {
      "children": [
        1
      ],
      "name": "RootNode"
    },
    {
      "children": [
        2
      ],
      "name": "arch"
    },
    {
      "children": [
        3
      ],
      "name": "lamps"
    },
    {
      "children": [
        4
      ],
      "name": "lamp"
    },
    {
      "children": [
        5
      ],
      "name": "polySurface4"
    },
    {
      "mesh": 0,
      "name": "polySurface4"
    }
  ],
  "samplers": [
    {
      "magFilter": 9729,
      "minFilter": 9985,
      "wrapS": 10497,
      "wrapT": 10497
    }
  ],
  "scene": 0,
  "scenes": [
    {
      "name": "Scene",
      "nodes": [
        0
      ]
    }
  ],
  "textures": [
    {
      "sampler": 0,
      "source": 0
    },
    {
      "sampler": 0,
      "source": 1
    },
    {
      "sampler": 0,
      "source": 2
    }
  ]
}