{
  "accessors": [
    {
      "bufferView": 0,
      "componentType": 5125,
      "count": 1206,
      "type": "SCALAR"
    },
    {
      "bufferView": 1,
      "componentType": 5126,
      "count": 370,
      "max": [
        -520.580627441406,
        161.611343383789,
        289.511993408203
      ],
      "min": [
        -579.6796875,
        108.218330383301,
        249.472183227539
      ],
      "type": "VEC3"
    },
    {
      "bufferView": 2,
      "componentType": 5126,
      "count": 370,
      "type": "VEC3"
    },
    {
      "bufferView": 3,
      "componentType": 5126,
      "count": 370,
      "type": "VEC2"
    },
    {
      "bufferView": 4,
      "componentType": 5125,
      "count": 1206,
      "type": "SCALAR"
    },
    {
      "bufferView": 5,
      "componentType": 5126,
      "count": 370,
      "max": [
        -435.305541992188,
        172.1455078125,
        268.48583984375
      ],
      "min": [
        -495.415649414063,
        119.739074707031,
        229.854858398438
      ],
      "type": "VEC3"
    },
    {
      "bufferView": 6,
      "componentType": 5126,
      "count": 370,
      "type": "VEC3"
    },
    {
      "bufferView": 7,
      "componentType": 5126,
      "count": 370,
      "type": "VEC2"
    }
  ],
  "asset": {
    "generator": "Substance Painter 6.2.2",
    "version": "2.0"
  },
  "bufferViews": [
    {
      "buffer": 0,
      "byteLength": 4824,
      "target": 34963
    },
    {
      "buffer": 0,
      "byteLength": 4440,
      "byteOffset": 4824,
      "target": 34962
    },
    {
      "buffer": 0,
      "byteLength": 4440,
      "byteOffset": 9264,
      "target": 34962
    },
    {
      "buffer": 0,
      "byteLength": 2960,
      "byteOffset": 13704,
      "target": 34962
    },
    {
      "buffer": 0,
      "byteLength": 4824,
      "byteOffset": 16664,
      "target": 34963
    },
    {
      "buffer": 0,
      "byteLength": 4440,
      "byteOffset": 21488,
      "target": 34962
    },
    {
      "buffer": 0,
      "byteLength": 4440,
      "byteOffset": 25928,
      "target": 34962
    },
    {
      "buffer": 0,
      "byteLength": 2960,
      "byteOffset": 30368,
      "target": 34962
    }
  ],
  "buffers": [
    {
      "byteLength": 33328,
      "uri": "objs_.bin"
    }
  ],
  "images": [
    {
      "uri": "pasted__standardSurface2_baseColor.png"
    },
    {
      "uri": "pasted__standardSurface2_occlusionRoughnessMetallic.png"
    },
    {
      "uri": "pasted__standardSurface2_normal.png"
    }
  ],
  "materials": [
    {
      "alphaMode": "BLEND",
      "name": "pasted__standardSurface2",
      "normalTexture": {
        "index": 2
      },
      "occlusionTexture": {
        "index": 1
      },
      "pbrMetallicRoughness": {
        "baseColorTexture": {
          "index": 0
        },
        "metallicRoughnessTexture": {
          "index": 1
        }
      }
    }
  ],
  "meshes": [
    {
      "name": "pillow1",
      "primitives": [
        {
          "attributes": {
            "NORMAL": 2,
            "POSITION": 1,
            "TEXCOORD_0": 3
          },
          "indices": 0,
          "material": 0,
          "mode": 4
        }
      ]
    },
    {
      "name": "pillow",
      "primitives": [
        {
          "attributes": {
            "NORMAL": 6,
            "POSITION": 5,
            "TEXCOORD_0": 7
          },
          "indices": 4,
          "material": 0,
          "mode": 4
        }
      ]
    }
  ],
  "nodes": [
    {
      "children": [
        1
      ],
      "name": "RootNode"
    },
    {
      "children": [
        2,
        4
      ],
      "name": "arch",
      "scale": [
        0.00999999977648258,
        0.00999999977648258,
        0.00999999977648258
      ]
    },
    {
      "children": [
        3
      ],
      "name": "pillow1",
      "rotation": [
        -0.0333978533744812,
        0.790946364402771,
        -0.591040730476379,
        0.154787972569466
      ],
      "scale": [
        0.999999940395355,
        1.0,
        1.0
      ],
      "translation": [
        -1189.3466796875,
        215.757568359375,
        308.323852539063
      ]
    },
    {
      "mesh": 0,
      "name": "pillow1"
    },
    {
      "children": [
        5
      ],
      "name": "pillow",
      "rotation": [
        -0.156153813004494,
        0.808574020862579,
        -0.566619098186493,
        -0.0276917610317469
      ],
      "scale": [
        1.0,
        1.0,
        0.999999940395355
      ],
      "translation": [
        -938.48779296875,
        218.683654785156,
        551.030639648438
      ]
    },
    {
      "mesh": 1,
      "name": "pillow"
    }
  ],
  "samplers": [
    {
      "magFilter": 9729,
      "minFilter": 9985,
      "wrapS": 10497,
      "wrapT": 10497
    }
  ],
  "scene": 0,
  "scenes": [
    {
      "name": "Scene",
      "nodes": [
        0
      ]
    }
  ],
  "textures": [
    {
      "sampler": 0,
      "source": 0
    },
    {
      "sampler": 0,
      "source": 1
    },
    {
      "sampler": 0,
      "source": 2
    }
  ]
}