{
  "accessors": [
    {
      "bufferView": 0,
      "componentType": 5125,
      "count": 90156,
      "type": "SCALAR"
    },
    {
      "bufferView": 1,
      "componentType": 5126,
      "count": 18520,
      "max": [
        3.84303832054138,
        14.6635084152222,
        1.99939155578613
      ],
      "min": [
        -2.2659764289856,
        -2.20780277252197,
        -19.1499366760254
      ],
      "type": "VEC3"
    },
    {
      "bufferView": 2,
      "componentType": 5126,
      "count": 18520,
      "type": "VEC3"
    },
    {
      "bufferView": 3,
      "componentType": 5126,
      "count": 18520,
      "type": "VEC2"
    }
  ],
  "asset": {
    "generator": "Substance Painter 6.2.2",
    "version": "2.0"
  },
  "bufferViews": [
    {
      "buffer": 0,
      "byteLength": 360624,
      "target": 34963
    },
    {
      "buffer": 0,
      "byteLength": 222240,
      "byteOffset": 360624,
      "target": 34962
    },
    {
      "buffer": 0,
      "byteLength": 222240,
      "byteOffset": 582864,
      "target": 34962
    },
    {
      "buffer": 0,
      "byteLength": 148160,
      "byteOffset": 805104,
      "target": 34962
    }
  ],
  "buffers": [
    {
      "byteLength": 953264,
      "uri": "objs_.bin"
    }
  ],
  "images": [
    {
      "uri": "standardSurface1_baseColor.png"
    },
    {
      "uri": "standardSurface1_occlusionRoughnessMetallic.png"
    },
    {
      "uri": "standardSurface1_normal.png"
    }
  ],
  "materials": [
    {
      "alphaMode": "OPAQUE",
      "name": "standardSurface1",
      "normalTexture": {
        "index": 2
      },
      "occlusionTexture": {
        "index": 1
      },
      "pbrMetallicRoughness": {
        "baseColorTexture": {
          "index": 0
        },
        "metallicRoughnessTexture": {
          "index": 1
        }
      }
    }
  ],
  "meshes": [
    {
      "name": "Steel Curtain Rod",
      "primitives": [
        {
          "attributes": {
            "NORMAL": 2,
            "POSITION": 1,
            "TEXCOORD_0": 3
          },
          "indices": 0,
          "material": 0,
          "mode": 4
        }
      ]
    }
  ],
  "nodes": [
    {
      "children": [
        1
      ],
      "name": "RootNode"
    },
    {
      "children": [
        2
      ],
      "name": "arch",
      "scale": [
        0.00999999977648258,
        0.00999999977648258,
        0.00999999977648258
      ]
    },
    {
      "children": [
        3
      ],
      "name": "curtain"
    },
    {
      "children": [
        4
      ],
      "name": "Steel Curtain Rod",
      "rotation": [
        0.70710676908493,
        -0.70710676908493,
        -4.21468477895814e-08,
        -1.1238228125876e-08
      ],
      "scale": [
        1.64268386363983,
        1.64268517494202,
        10.1369829177856
      ],
      "translation": [
        -683.524353027344,
        361.255462646484,
        64.8810272216797
      ]
    },
    {
      "mesh": 0,
      "name": "Steel Curtain Rod"
    }
  ],
  "samplers": [
    {
      "magFilter": 9729,
      "minFilter": 9985,
      "wrapS": 10497,
      "wrapT": 10497
    }
  ],
  "scene": 0,
  "scenes": [
    {
      "name": "Scene",
      "nodes": [
        0
      ]
    }
  ],
  "textures": [
    {
      "sampler": 0,
      "source": 0
    },
    {
      "sampler": 0,
      "source": 1
    },
    {
      "sampler": 0,
      "source": 2
    }
  ]
}